HIERARCHY
ROOT Hips
{
    OFFSET 0.0 0.0 0.0
    CHANNELS 6 Xposition Yposition Zposition Zrotation Xrotation Yrotation
    JOINT Spine
    {
        OFFSET 0.0 5.0 0.0
        CHANNELS 3 Zrotation Xrotation Yrotation
        JOINT Chest
        {
            OFFSET 0.0 5.0 0.0
            CHANNELS 3 Zrotation Xrotation Yrotation
            JOINT Neck
            {
                OFFSET 0.0 8.0 0.0
                CHANNELS 3 Zrotation Xrotation Yrotation
                JOINT Head
                {
                    OFFSET 0.0 5.0 0.0
                    CHANNELS 3 Zrotation Xrotation Yrotation
                    End Site
                    {
                        OFFSET 0.0 3.0 0.0
                    }
                }
            }
            JOINT LeftShoulder
            {
                OFFSET -5.0 0.0 0.0
                CHANNELS 3 Zrotation Xrotation Yrotation
                JOINT LeftArm
                {
                    OFFSET 0.0 -10.0 0.0
                    CHANNELS 3 Zrotation Xrotation Yrotation
                    JOINT LeftForeArm
                    {
                        OFFSET 0.0 -10.0 0.0
                        CHANNELS 3 Zrotation Xrotation Yrotation
                        End Site
                        {
                            OFFSET 0.0 -3.0 0.0
                        }
                    }
                }
            }
        }
    }
}

MOTION
Frames: 37
Frame Time: 0.033333
960.000000 445.000000 95.388414 0.000000 0.000000 0.000000 0.000000 0.000000 0.000000 23.025492 14.705049 0.000000 180.000000 4.955535 0.000000 21.801409 2.097070 -0.000000 158.198591 3.092860 30.000000 15.945396 4.150029 0.000000 18.000000 -0.396176 0.000000
1691.525230 140.756605 95.156369 0.000000 0.000000 0.000000 0.000000 0.000000 0.000000 -163.376529 13.523656 4.973798 16.623471 -13.568755 4.973798 -171.853121 -3.190556 3.759997 99.744051 -26.540733 29.763441 -171.126653 -3.695217 -3.759997 0.673538 0.432228 0.313953
1636.048050 128.802021 124.056344 0.000000 0.000000 0.000000 0.000000 0.000000 0.000000 157.904128 -27.496197 9.635073 -22.095872 15.694731 9.635073 -171.936471 -3.928020 7.460697 -143.675701 0.347033 29.057495 -173.500805 -3.966246 -7.460697 0.570999 0.411523 0.626666
1578.156967 80.474526 112.016908 0.000000 0.000000 0.000000 0.000000 0.000000 0.000000 -139.519796 4.760496 13.690942 40.480204 6.800631 13.690942 -174.507724 -4.201196 11.043737 119.111399 1.694674 27.893295 -173.607258 -4.186078 -11.043737 0.461920 0.529025 0.936907
960.418757 444.998421 105.894462 0.000000 0.000000 0.000000 0.000000 0.000000 0.000000 25.077893 10.119474 16.886559 180.000000 -0.832474 16.886559 23.861935 12.598991 14.452610 156.138065 3.330343 26.289200 17.903699 -0.591840 -14.452610 18.000000 -0.786177 1.243449
960.523360 444.997533 118.417438 0.000000 0.000000 0.000000 0.000000 0.000000 0.000000 25.638906 23.900680 19.021130 180.000000 -10.580042 19.021130 24.425035 3.336289 17.633558 155.574965 -1.796880 24.270510 18.452907 -3.413473 -17.633558 18.000000 -0.039173 1.545085
960.627905 444.996447 111.303897 0.000000 0.000000 0.000000 0.000000 0.000000 0.000000 26.219073 20.862532 19.960535 180.000000 -8.683836 19.960535 25.006291 2.795925 20.536413 154.993709 6.515128 21.869059 19.024920 -5.413727 -20.536413 18.000000 -1.301315 1.840623
1126.242828 420.359820 141.690870 0.000000 0.000000 0.000000 0.000000 0.000000 0.000000 31.410514 3.651043 19.645745 -148.589486 -6.815058 19.645745 32.280463 2.597741 23.115397 -131.603972 -6.214746 19.122720 45.585331 3.581413 -23.115397 -13.449727 0.056609 2.128896
1257.895088 650.549197 133.561932 0.000000 0.000000 0.000000 0.000000 0.000000 0.000000 25.073180 -7.066992 18.096541 -154.926820 6.779117 18.096541 46.260945 11.447382 25.329838 -154.651428 -4.995011 16.074804 27.339487 4.229073 -25.329838 -13.619892 -0.013135 2.408768
960.941083 444.992008 120.882820 0.000000 0.000000 0.000000 0.000000 0.000000 0.000000 28.072001 4.479384 15.410265 180.000000 -16.272289 15.410265 26.849221 1.402430 27.144812 153.150779 -13.213705 12.773379 20.864045 7.083233 -27.144812 18.000000 0.616960 2.679134
1163.815842 547.748709 133.161637 0.000000 0.000000 0.000000 0.000000 0.000000 0.000000 117.162728 -6.889459 11.755705 -62.837272 5.283524 11.755705 102.363764 -6.162836 28.531695 -47.376450 1.785826 9.270510 104.768601 -5.872888 -28.531695 -6.003489 0.603337 2.938926
961.149372 444.988063 124.834108 0.000000 0.000000 0.000000 0.000000 0.000000 0.000000 29.395983 17.360735 7.362491 180.000000 -11.636256 7.362491 28.146217 -3.908252 29.468618 151.853783 1.384695 5.621439 22.170006 -8.272825 -29.468618 18.000000 0.179242 3.187120
1136.717377 590.104480 147.378295 0.000000 0.000000 0.000000 0.000000 0.000000 0.000000 115.752126 4.616308 2.506665 -64.247874 -4.720971 2.506665 73.638146 -0.776599 29.940802 -21.842452 3.876946 1.883716 75.369282 -3.402449 -29.940802 -6.767207 -0.639305 3.422736
1163.079758 634.077559 155.033385 0.000000 0.000000 0.000000 0.000000 0.000000 0.000000 132.174340 8.989386 -2.506665 -47.825660 4.680897 -2.506665 94.255711 -4.281792 29.940802 -149.364979 -7.112719 -1.883716 30.021641 5.799062 -29.940802 -5.096180 -0.441057 3.644843
961.460830 444.980668 139.415276 0.000000 0.000000 0.000000 0.000000 0.000000 0.000000 31.497152 -35.067813 -7.362491 180.000000 3.913851 -7.362491 30.152455 -0.236384 29.468618 149.847545 5.408696 -5.621439 24.175589 0.244448 -29.468618 18.000000 0.367088 3.852566
1097.449951 565.089898 139.659843 0.000000 0.000000 0.000000 0.000000 0.000000 0.000000 -119.219568 -3.333996 -11.755705 60.780432 -7.669986 -11.755705 -150.180642 -6.174942 28.531695 48.804955 -3.505167 -9.270510 -149.874178 -5.823323 -28.531695 2.713854 0.559158 4.045085
1114.140244 528.302071 140.750132 0.000000 0.000000 0.000000 0.000000 0.000000 0.000000 -142.671523 0.125832 -15.410265 37.328477 -1.742488 -15.410265 -177.395681 6.037732 27.144812 34.687329 -1.296595 -12.773379 161.894167 2.341138 -27.144812 -0.910956 -0.025669 4.221640
1116.433640 479.728639 149.144992 0.000000 0.000000 0.000000 0.000000 0.000000 0.000000 -102.267481 -4.519760 -18.096541 77.732519 8.871498 -18.096541 -163.695626 0.666862 25.329838 38.575767 1.604280 -16.074804 -176.001122 2.122412 -25.329838 0.706594 0.063125 4.381533
1135.931282 466.493965 151.035353 0.000000 0.000000 0.000000 0.000000 0.000000 0.000000 -112.868406 9.348378 -19.645745 67.131594 -0.359554 -19.645745 -159.517862 3.985010 23.115397 36.204678 0.217659 -19.122720 -154.426613 -6.016782 -23.115397 2.428729 0.495443 4.524135
1141.618767 467.420679 135.264584 0.000000 0.000000 0.000000 0.000000 0.000000 0.000000 -123.086385 15.476018 -19.960535 56.913615 -0.981041 -19.960535 -154.885724 -4.071794 20.536413 36.481623 -0.559572 -21.869059 -153.965441 -6.272126 -20.536413 2.446728 0.521563 4.648882
1150.647926 469.370956 120.105321 0.000000 0.000000 0.000000 0.000000 0.000000 0.000000 -43.953779 -7.099056 -19.021130 136.046221 -46.283716 -19.021130 -154.327268 -5.884538 17.633558 60.745168 -4.997267 -24.270510 -153.350642 -6.518296 -17.633558 2.386216 0.578347 4.755283
1151.529922 496.420240 151.121966 0.000000 0.000000 0.000000 0.000000 0.000000 0.000000 -116.362129 1.650038 -16.886559 63.637871 6.029971 -16.886559 -149.081043 -5.548985 14.452610 35.941860 -3.346101 -26.289200 -156.847177 0.113606 -14.452610 2.056513 0.062984 4.842916
1148.402367 515.713574 134.888920 0.000000 0.000000 0.000000 0.000000 0.000000 0.000000 -118.252650 9.330502 -13.690942 61.747350 -18.575373 -13.690942 -138.082896 1.654967 11.043737 -156.312677 -8.092283 -27.893295 21.649626 11.141329 -11.043737 2.962417 -0.076106 4.911436
1175.363617 533.368646 137.223900 0.000000 0.000000 0.000000 0.000000 0.000000 0.000000 -95.476638 9.058428 -9.635073 84.523362 -24.322435 -9.635073 -113.907461 7.035414 7.460697 -155.995907 -7.368178 -29.057495 12.512064 8.205080 -7.460697 -16.748794 -0.820508 4.960574
1199.533310 485.991104 129.523421 0.000000 0.000000 0.000000 0.000000 0.000000 0.000000 -100.003195 -2.021844 -4.973798 79.996805 -3.572314 -4.973798 -86.083188 -1.352062 3.759997 38.843754 0.853364 -29.763441 -106.539452 -0.619209 -3.759997 6.197806 0.235854 4.990134
962.588190 444.938442 124.440546 0.000000 0.000000 0.000000 0.000000 0.000000 0.000000 39.579754 7.749640 -0.000000 180.000000 -25.255516 -0.000000 36.680773 -4.575258 0.000000 143.319227 -11.030994 -30.000000 29.388385 2.783912 -0.000000 18.000000 -1.296931 5.000000
1142.094727 445.716287 133.903598 0.000000 0.000000 0.000000 0.000000 0.000000 0.000000 -140.228454 8.978847 4.973798 39.771546 9.932252 4.973798 -156.118008 -6.071438 -3.759997 3.479189 12.662093 -29.763441 -158.005660 -6.536762 3.759997 2.150019 0.562118 4.990134
1164.005928 424.847746 102.439864 0.000000 0.000000 0.000000 0.000000 0.000000 0.000000 -84.241076 34.406872 9.635073 95.758924 21.493840 9.635073 -156.181584 -6.273378 -7.460697 166.928360 2.955970 -29.057495 -154.947270 -6.393716 7.460697 2.644196 0.659417 4.960574
1124.208755 418.286655 110.860596 0.000000 0.000000 0.000000 0.000000 0.000000 0.000000 -117.427077 23.402251 13.690942 62.572923 -11.152593 13.690942 -155.943063 -5.300179 -11.043737 14.023837 14.463904 -27.893295 -157.382674 -6.153571 11.043737 2.188130 0.482109 4.911436
962.990408 444.917226 94.872235 0.000000 0.000000 0.000000 0.000000 0.000000 0.000000 42.110883 19.616764 16.886559 180.000000 -4.882453 16.886559 37.946959 -10.571695 -14.452610 142.053041 -1.688424 -26.289200 29.293612 -2.017338 14.452610 18.000000 1.046608 4.842916
963.090170 444.911436 100.179400 0.000000 0.000000 0.000000 0.000000 0.000000 0.000000 42.659200 -22.195127 19.021130 180.000000 2.020943 19.021130 38.119107 -5.712612 -17.633558 141.880893 18.468111 -24.270510 29.068887 -8.075252 17.633558 18.000000 -0.359912 4.755283
1186.646461 396.272757 89.237511 0.000000 0.000000 0.000000 0.000000 0.000000 0.000000 -72.847419 2.535166 19.960535 107.152581 21.536765 19.960535 -156.703603 -4.714058 -20.536413 178.447294 8.008719 -21.869059 -157.212393 -4.732633 20.536413 1.964058 0.483988 4.648882
1313.051605 426.636125 101.536485 0.000000 0.000000 0.000000 0.000000 0.000000 0.000000 90.994869 -1.344251 19.645745 -89.005131 3.875835 19.645745 -160.515303 -5.261500 -23.115397 -153.248861 -5.034259 -19.122720 -159.640525 -5.097851 23.115397 0.000000 0.000000 0.000000
1347.999344 420.772226 99.537524 0.000000 0.000000 0.000000 0.000000 0.000000 0.000000 90.154351 -6.799247 18.096541 -89.845649 12.738121 18.096541 -162.053401 -4.938922 -25.329838 -136.198880 -2.401139 -16.074804 -160.991694 -3.797512 25.329838 0.000000 0.000000 0.000000
1344.315948 421.031681 84.910398 0.000000 0.000000 0.000000 0.000000 0.000000 0.000000 69.757587 3.729582 15.410265 -110.242413 12.169090 15.410265 25.616746 -6.337766 -27.144812 -157.821005 -3.024619 -12.773379 17.214985 3.126749 27.144812 -16.704706 -0.065823 4.221640
1350.307617 440.309436 99.881467 0.000000 0.000000 0.000000 0.000000 0.000000 0.000000 71.124018 16.660887 11.755705 -108.875982 -2.420843 11.755705 42.739987 -0.731612 -28.531695 -142.315466 -5.085559 -9.270510 16.600926 1.537943 28.531695 -16.660102 -0.128854 4.045085
1357.685051 430.688889 66.454297 0.000000 0.000000 0.000000 0.000000 0.000000 0.000000 77.656077 -2.236086 7.362491 -102.343923 -15.715673 7.362491 39.407151 13.402659 -29.468618 -136.343173 -3.293235 -5.621439 22.144452 3.025728 29.468618 -16.305135 -0.214406 3.852566
